<?xml version="1.0" encoding="UTF-8" standalone="no"?>
<!DOCTYPE svg PUBLIC "-//W3C//DTD SVG 1.1//EN"
 "http://www.w3.org/Graphics/SVG/1.1/DTD/svg11.dtd">
<!-- Generated by graphviz version 14.0.1 (20251006.0113)
 -->
<!-- Title: root Pages: 1 -->
<svg width="2876pt" height="649pt"
 viewBox="0.00 0.00 2876.00 649.00" xmlns="http://www.w3.org/2000/svg" xmlns:xlink="http://www.w3.org/1999/xlink">
<g id="graph0" class="graph" transform="scale(1 1) rotate(0) translate(4 645.25)">
<title>root</title>
<polygon fill="white" stroke="none" points="-4,4 -4,-645.25 2872,-645.25 2872,4 -4,4"/>
<g id="clust1" class="cluster">
<title>cluster_curriculum</title>
<polygon fill="none" stroke="white" points="8,-8 8,-633.25 1588,-633.25 1588,-8 8,-8"/>
<text xml:space="preserve" text-anchor="middle" x="798" y="-606.45" font-family="Times New Roman,serif" font-size="24.00">Depletion</text>
</g>
<g id="clust2" class="cluster">
<title>cluster_one_odor_no_depletion</title>
<polygon fill="none" stroke="black" points="1596,-546.25 1596,-622.75 2860,-622.75 2860,-546.25 1596,-546.25"/>
<text xml:space="preserve" text-anchor="middle" x="2228" y="-605.45" font-family="Times New Roman,serif" font-size="14.00">one_odor_no_depletion</text>
</g>
<!-- 0 -->
<g id="node1" class="node">
<title>0</title>
<polygon fill="lightgrey" stroke="black" points="537.12,-590.25 392.88,-590.25 392.88,-554.25 537.12,-554.25 537.12,-590.25"/>
<text xml:space="preserve" text-anchor="middle" x="465" y="-567.2" font-family="Times New Roman,serif" font-size="14.00">one_odor_no_depletion</text>
</g>
<!-- 1 -->
<g id="node2" class="node">
<title>1</title>
<polygon fill="lightgrey" stroke="black" points="555.12,-463.75 374.88,-463.75 374.88,-427.75 555.12,-427.75 555.12,-463.75"/>
<text xml:space="preserve" text-anchor="middle" x="465" y="-440.7" font-family="Times New Roman,serif" font-size="14.00">one_odor_w_depletion_day_0</text>
</g>
<!-- 0&#45;&gt;1 -->
<g id="edge1" class="edge">
<title>0&#45;&gt;1</title>
<path fill="none" stroke="black" d="M465,-553.94C465,-533.59 465,-499.53 465,-475.26"/>
<polygon fill="black" stroke="black" points="468.5,-475.43 465,-465.43 461.5,-475.43 468.5,-475.43"/>
<text xml:space="preserve" text-anchor="middle" x="840.75" y="-503.95" font-family="Times New Roman,serif" font-size="14.00">(1) aind_behavior_vr_foraging_curricula.depletion.curriculum.st_s_stage_one_odor_no_depletion_s_stage_one_odor_w_depletion_day_0</text>
</g>
<!-- 2 -->
<g id="node3" class="node">
<title>2</title>
<polygon fill="lightgrey" stroke="black" points="555.12,-305 374.88,-305 374.88,-269 555.12,-269 555.12,-305"/>
<text xml:space="preserve" text-anchor="middle" x="465" y="-281.95" font-family="Times New Roman,serif" font-size="14.00">one_odor_w_depletion_day_1</text>
</g>
<!-- 1&#45;&gt;2 -->
<g id="edge2" class="edge">
<title>1&#45;&gt;2</title>
<path fill="none" stroke="black" d="M374.6,-439.29C258.6,-431.34 69.68,-414.85 48.5,-390.75 34.2,-374.47 34.2,-358.28 48.5,-342 68.99,-318.68 246.59,-302.48 363.17,-294.26"/>
<polygon fill="black" stroke="black" points="363.36,-297.75 373.09,-293.57 362.88,-290.77 363.36,-297.75"/>
<text xml:space="preserve" text-anchor="middle" x="425.75" y="-377.45" font-family="Times New Roman,serif" font-size="14.00">(1) aind_behavior_vr_foraging_curricula.depletion.curriculum.st_s_stage_one_odor_w_depletion_day_0_s_stage_one_odor_w_depletion_&#13;</text>
<text xml:space="preserve" text-anchor="middle" x="425.75" y="-345.2" font-family="Times New Roman,serif" font-size="14.00">day_1</text>
</g>
<!-- 2&#45;&gt;1 -->
<g id="edge3" class="edge">
<title>2&#45;&gt;1</title>
<path fill="none" stroke="black" d="M555.61,-289.68C644.71,-293.48 771.76,-305.38 803,-342 872.47,-423.45 690.07,-441.6 566.97,-444.9"/>
<polygon fill="black" stroke="black" points="567.05,-441.4 557.14,-445.13 567.22,-448.4 567.05,-441.4"/>
<text xml:space="preserve" text-anchor="middle" x="1195.55" y="-377.45" font-family="Times New Roman,serif" font-size="14.00">(1) aind_behavior_vr_foraging_curricula.depletion.curriculum.st_s_stage_one_odor_w_depletion_day_1_s_stage_one_odor_w_depletion_&#13;</text>
<text xml:space="preserve" text-anchor="middle" x="1195.55" y="-345.2" font-family="Times New Roman,serif" font-size="14.00">day_0</text>
</g>
<!-- 3 -->
<g id="node4" class="node">
<title>3</title>
<polygon fill="lightgrey" stroke="black" points="526.62,-178.5 403.38,-178.5 403.38,-142.5 526.62,-142.5 526.62,-178.5"/>
<text xml:space="preserve" text-anchor="middle" x="465" y="-155.45" font-family="Times New Roman,serif" font-size="14.00">all_odors_rewarded</text>
</g>
<!-- 2&#45;&gt;3 -->
<g id="edge4" class="edge">
<title>2&#45;&gt;3</title>
<path fill="none" stroke="black" d="M465,-268.69C465,-248.34 465,-214.28 465,-190.01"/>
<polygon fill="black" stroke="black" points="468.5,-190.18 465,-180.18 461.5,-190.18 468.5,-190.18"/>
<text xml:space="preserve" text-anchor="middle" x="830.25" y="-218.7" font-family="Times New Roman,serif" font-size="14.00">(2) aind_behavior_vr_foraging_curricula.depletion.curriculum.st_s_stage_one_odor_w_depletion_day_1_s_stage_all_odors_rewarded</text>
</g>
<!-- 4 -->
<g id="node5" class="node">
<title>4</title>
<polygon fill="lightgrey" stroke="black" points="501.88,-52 428.12,-52 428.12,-16 501.88,-16 501.88,-52"/>
<text xml:space="preserve" text-anchor="middle" x="465" y="-28.95" font-family="Times New Roman,serif" font-size="14.00">graduation</text>
</g>
<!-- 3&#45;&gt;4 -->
<g id="edge5" class="edge">
<title>3&#45;&gt;4</title>
<path fill="none" stroke="black" d="M465,-142.19C465,-121.84 465,-87.78 465,-63.51"/>
<polygon fill="black" stroke="black" points="468.5,-63.68 465,-53.68 461.5,-63.68 468.5,-63.68"/>
<text xml:space="preserve" text-anchor="middle" x="777" y="-92.2" font-family="Times New Roman,serif" font-size="14.00">(1) aind_behavior_vr_foraging_curricula.depletion.curriculum.st_s_stage_all_odors_rewarded_s_stage_graduation</text>
</g>
<!-- 0_gv1 -->
<g id="node6" class="node">
<title>0_gv1</title>
<polygon fill="#ffea00" stroke="black" points="1996.25,-590.25 1603.75,-590.25 1603.75,-554.25 1996.25,-554.25 1996.25,-590.25"/>
<text xml:space="preserve" text-anchor="middle" x="1800" y="-567.98" font-family="Arial" font-size="12.00">aind_behavior_vr_foraging_curricula.depletion.policies.p_learn_to_run</text>
</g>
<!-- 1_gv1 -->
<g id="node7" class="node">
<title>1_gv1</title>
<polygon fill="#ffea00" stroke="black" points="2411.88,-590.25 2014.12,-590.25 2014.12,-554.25 2411.88,-554.25 2411.88,-590.25"/>
<text xml:space="preserve" text-anchor="middle" x="2213" y="-567.98" font-family="Arial" font-size="12.00">aind_behavior_vr_foraging_curricula.depletion.policies.p_learn_to_stop</text>
</g>
<!-- 2_gv1 -->
<g id="node8" class="node">
<title>2_gv1</title>
<polygon fill="#ffea00" stroke="black" points="2851.88,-590.25 2430.12,-590.25 2430.12,-554.25 2851.88,-554.25 2851.88,-590.25"/>
<text xml:space="preserve" text-anchor="middle" x="2641" y="-567.98" font-family="Arial" font-size="12.00">aind_behavior_vr_foraging_curricula.depletion.policies.p_stochastic_reward</text>
</g>
</g>
</svg>
