<?xml version="1.0" encoding="UTF-8" standalone="no"?>
<!DOCTYPE svg PUBLIC "-//W3C//DTD SVG 1.1//EN"
 "http://www.w3.org/Graphics/SVG/1.1/DTD/svg11.dtd">
<!-- Generated by graphviz version 14.0.1 (20251006.0113)
 -->
<!-- Title: root Pages: 1 -->
<svg width="1178pt" height="238pt"
 viewBox="0.00 0.00 1178.00 238.00" xmlns="http://www.w3.org/2000/svg" xmlns:xlink="http://www.w3.org/1999/xlink">
<g id="graph0" class="graph" transform="scale(1 1) rotate(0) translate(4 233.5)">
<title>root</title>
<polygon fill="white" stroke="none" points="-4,4 -4,-233.5 1174,-233.5 1174,4 -4,4"/>
<g id="clust1" class="cluster">
<title>cluster_curriculum</title>
<polygon fill="none" stroke="white" points="8,-8 8,-221.5 676,-221.5 676,-8 8,-8"/>
<text xml:space="preserve" text-anchor="middle" x="342" y="-194.7" font-family="Times New Roman,serif" font-size="24.00">SingleSiteMatching</text>
</g>
<g id="clust2" class="cluster">
<title>cluster_learn_to_stop</title>
<polygon fill="none" stroke="black" points="684,-134.5 684,-211 1162,-211 1162,-134.5 684,-134.5"/>
<text xml:space="preserve" text-anchor="middle" x="923" y="-193.7" font-family="Times New Roman,serif" font-size="14.00">learn_to_stop</text>
</g>
<!-- 0 -->
<g id="node1" class="node">
<title>0</title>
<polygon fill="lightgrey" stroke="black" points="105.75,-178.5 16.25,-178.5 16.25,-142.5 105.75,-142.5 105.75,-178.5"/>
<text xml:space="preserve" text-anchor="middle" x="61" y="-155.45" font-family="Times New Roman,serif" font-size="14.00">learn_to_stop</text>
</g>
<!-- 1 -->
<g id="node2" class="node">
<title>1</title>
<polygon fill="lightgrey" stroke="black" points="119.88,-52 16.12,-52 16.12,-16 119.88,-16 119.88,-52"/>
<text xml:space="preserve" text-anchor="middle" x="68" y="-28.95" font-family="Times New Roman,serif" font-size="14.00">graduated_stage</text>
</g>
<!-- 0&#45;&gt;1 -->
<g id="edge1" class="edge">
<title>0&#45;&gt;1</title>
<path fill="none" stroke="black" d="M61.97,-142.19C63.12,-121.84 65.03,-87.78 66.4,-63.51"/>
<polygon fill="black" stroke="black" points="69.88,-63.86 66.95,-53.68 62.89,-63.46 69.88,-63.86"/>
<text xml:space="preserve" text-anchor="middle" x="381.78" y="-92.2" font-family="Times New Roman,serif" font-size="14.00">(1) aind_behavior_vr_foraging_curricula.single_site_matching.curriculum.st_s_learn_to_stop_to_s_graduated_stage</text>
</g>
<!-- 0_gv1 -->
<g id="node3" class="node">
<title>0_gv1</title>
<polygon fill="#ffea00" stroke="black" points="1153.75,-178.5 692.25,-178.5 692.25,-142.5 1153.75,-142.5 1153.75,-178.5"/>
<text xml:space="preserve" text-anchor="middle" x="923" y="-156.22" font-family="Arial" font-size="12.00">aind_behavior_vr_foraging_curricula.single_site_matching.policies.p_learn_to_stop</text>
</g>
</g>
</svg>
