<?xml version="1.0" encoding="UTF-8" standalone="no"?>
<!DOCTYPE svg PUBLIC "-//W3C//DTD SVG 1.1//EN"
 "http://www.w3.org/Graphics/SVG/1.1/DTD/svg11.dtd">
<!-- Generated by graphviz version 2.43.0 (0)
 -->
<!-- Title: root Pages: 1 -->
<svg width="1359pt" height="235pt"
 viewBox="0.00 0.00 1359.00 235.00" xmlns="http://www.w3.org/2000/svg" xmlns:xlink="http://www.w3.org/1999/xlink">
<g id="graph0" class="graph" transform="scale(1 1) rotate(0) translate(4 231)">
<title>root</title>
<polygon fill="white" stroke="transparent" points="-4,4 -4,-231 1355,-231 1355,4 -4,4"/>
<g id="clust1" class="cluster">
<title>cluster_curriculum</title>
<polygon fill="none" stroke="white" points="8,-8 8,-219 857,-219 857,-8 8,-8"/>
<text text-anchor="middle" x="432.5" y="-195.8" font-family="Times,serif" font-size="24.00">SingleSiteMatching</text>
</g>
<g id="clust2" class="cluster">
<title>cluster_learn_to_stop</title>
<polygon fill="none" stroke="black" points="865,-133 865,-208 1343,-208 1343,-133 865,-133"/>
<text text-anchor="middle" x="1104" y="-192.8" font-family="Times,serif" font-size="14.00">learn_to_stop</text>
</g>
<!-- 0 -->
<g id="node1" class="node">
<title>0</title>
<polygon fill="lightgrey" stroke="black" points="128,-177 16,-177 16,-141 128,-141 128,-177"/>
<text text-anchor="middle" x="72" y="-155.3" font-family="Times,serif" font-size="14.00">learn_to_stop</text>
</g>
<!-- 1 -->
<g id="node2" class="node">
<title>1</title>
<polygon fill="lightgrey" stroke="black" points="152,-52 16,-52 16,-16 152,-16 152,-52"/>
<text text-anchor="middle" x="84" y="-30.3" font-family="Times,serif" font-size="14.00">graduated_stage</text>
</g>
<!-- 0&#45;&gt;1 -->
<g id="edge1" class="edge">
<title>0&#45;&gt;1</title>
<path fill="none" stroke="black" d="M73.67,-140.9C75.65,-120.63 78.97,-86.6 81.31,-62.59"/>
<polygon fill="black" stroke="black" points="84.82,-62.65 82.31,-52.35 77.85,-61.97 84.82,-62.65"/>
<text text-anchor="middle" x="485.5" y="-92.8" font-family="Times,serif" font-size="14.00">(1) aind_behavior_vr_foraging_curricula.single_site_matching.curriculum.st_s_learn_to_stop_to_s_graduated_stage</text>
</g>
<!-- 0_gv1 -->
<g id="node3" class="node">
<title>0_gv1</title>
<polygon fill="#ffea00" stroke="black" points="1335,-177 873,-177 873,-141 1335,-141 1335,-177"/>
<text text-anchor="middle" x="1104" y="-155.9" font-family="Arial" font-size="12.00">aind_behavior_vr_foraging_curricula.single_site_matching.policies.p_learn_to_stop</text>
</g>
</g>
</svg>
