<?xml version="1.0" encoding="UTF-8" standalone="no"?>
<!DOCTYPE svg PUBLIC "-//W3C//DTD SVG 1.1//EN"
 "http://www.w3.org/Graphics/SVG/1.1/DTD/svg11.dtd">
<!-- Generated by graphviz version 14.0.1 (20251006.0113)
 -->
<!-- Title: root Pages: 1 -->
<svg width="995pt" height="238pt"
 viewBox="0.00 0.00 995.00 238.00" xmlns="http://www.w3.org/2000/svg" xmlns:xlink="http://www.w3.org/1999/xlink">
<g id="graph0" class="graph" transform="scale(1 1) rotate(0) translate(4 233.5)">
<title>root</title>
<polygon fill="white" stroke="none" points="-4,4 -4,-233.5 991,-233.5 991,4 -4,4"/>
<g id="clust1" class="cluster">
<title>cluster_curriculum</title>
<polygon fill="none" stroke="white" points="8,-8 8,-221.5 511,-221.5 511,-8 8,-8"/>
<text xml:space="preserve" text-anchor="middle" x="259.5" y="-194.7" font-family="Times New Roman,serif" font-size="24.00">TemplateCurriculum</text>
</g>
<g id="clust2" class="cluster">
<title>cluster_stage_a</title>
<polygon fill="none" stroke="black" points="519,-134.5 519,-211 979,-211 979,-134.5 519,-134.5"/>
<text xml:space="preserve" text-anchor="middle" x="749" y="-193.7" font-family="Times New Roman,serif" font-size="14.00">stage_a</text>
</g>
<!-- 0 -->
<g id="node1" class="node">
<title>0</title>
<polygon fill="lightgrey" stroke="black" points="72.25,-178.5 15.75,-178.5 15.75,-142.5 72.25,-142.5 72.25,-178.5"/>
<text xml:space="preserve" text-anchor="middle" x="44" y="-155.45" font-family="Times New Roman,serif" font-size="14.00">stage_a</text>
</g>
<!-- 1 -->
<g id="node2" class="node">
<title>1</title>
<polygon fill="lightgrey" stroke="black" points="73.62,-52 16.38,-52 16.38,-16 73.62,-16 73.62,-52"/>
<text xml:space="preserve" text-anchor="middle" x="45" y="-28.95" font-family="Times New Roman,serif" font-size="14.00">stage_b</text>
</g>
<!-- 0&#45;&gt;1 -->
<g id="edge1" class="edge">
<title>0&#45;&gt;1</title>
<path fill="none" stroke="black" d="M44.14,-142.19C44.3,-121.84 44.58,-87.78 44.77,-63.51"/>
<polygon fill="black" stroke="black" points="48.27,-63.71 44.85,-53.68 41.27,-63.65 48.27,-63.71"/>
<text xml:space="preserve" text-anchor="middle" x="278.93" y="-92.2" font-family="Times New Roman,serif" font-size="14.00">(1) aind_behavior_vr_foraging_curricula.template.curriculum.st_s_stage_a_s_stage_b</text>
</g>
<!-- 0_gv1 -->
<g id="node3" class="node">
<title>0_gv1</title>
<polygon fill="#ffea00" stroke="black" points="970.75,-178.5 527.25,-178.5 527.25,-142.5 970.75,-142.5 970.75,-178.5"/>
<text xml:space="preserve" text-anchor="middle" x="749" y="-156.22" font-family="Arial" font-size="12.00">aind_behavior_vr_foraging_curricula.template.stages.p_set_mode_from_metric1</text>
</g>
</g>
</svg>
